HIERARCHY
ROOT root
{
	OFFSET 0.000000 0.000000 0.000000
	CHANNELS 6 Xposition Yposition Zposition Zrotation Yrotation Xrotation
	JOINT lhip
	{
		OFFSET 0.058581 -0.082280 -0.017664
		CHANNELS 3 Zrotation Yrotation Xrotation
		JOINT lknee
		{
			OFFSET 0.043451 -0.386469 0.008037
			CHANNELS 3 Zrotation Yrotation Xrotation
			JOINT lankle
			{
				OFFSET -0.014790 -0.426874 -0.037428
				CHANNELS 3 Zrotation Yrotation Xrotation
				JOINT ltoe
				{
					OFFSET 0.041054 -0.060286 0.122042
					CHANNELS 3 Zrotation Yrotation Xrotation
					End Site
					{
						OFFSET 0.000000 0.000000 0.000000
					}
				}
			}
		}
	}
	JOINT rhip
	{
		OFFSET -0.060310 -0.090513 -0.013543
		CHANNELS 3 Zrotation Yrotation Xrotation
		JOINT rknee
		{
			OFFSET -0.043257 -0.383688 -0.004843
			CHANNELS 3 Zrotation Yrotation Xrotation
			JOINT rankle
			{
				OFFSET 0.019056 -0.420046 -0.034562
				CHANNELS 3 Zrotation Yrotation Xrotation
				JOINT rtoe
				{
					OFFSET -0.034840 -0.062106 0.130323
					CHANNELS 3 Zrotation Yrotation Xrotation
					End Site
					{
						OFFSET 0.000000 0.000000 0.000000
					}
				}
			}
		}
	}
	JOINT lowerback
	{
		OFFSET 0.004439 0.124404 -0.038385
		CHANNELS 3 Zrotation Yrotation Xrotation
		JOINT upperback
		{
			OFFSET 0.004488 0.137956 0.026820
			CHANNELS 3 Zrotation Yrotation Xrotation
			JOINT chest
			{
				OFFSET -0.002265 0.056032 0.002855
				CHANNELS 3 Zrotation Yrotation Xrotation
				JOINT lowerneck
				{
					OFFSET -0.013390 0.211636 -0.033468
					CHANNELS 3 Zrotation Yrotation Xrotation
					JOINT upperneck
					{
						OFFSET 0.010113 0.088937 0.050410
						CHANNELS 3 Zrotation Yrotation Xrotation
						End Site
						{
							OFFSET 0.000000 0.000000 0.000000
						}
					}
				}
				JOINT lclavicle
				{
					OFFSET 0.071702 0.114000 -0.018898
					CHANNELS 3 Zrotation Yrotation Xrotation
					JOINT lshoulder
					{
						OFFSET 0.122921 0.045205 -0.019046
						CHANNELS 3 Zrotation Yrotation Xrotation
						JOINT lelbow
						{
							OFFSET 0.255332 -0.015649 -0.022946
							CHANNELS 3 Zrotation Yrotation Xrotation
							JOINT lwrist
							{
								OFFSET 0.265709 0.012698 -0.007375
								CHANNELS 3 Zrotation Yrotation Xrotation
								End Site
								{
									OFFSET 0.000000 0.000000 0.000000
								}
							}
						}
					}
				}
				JOINT rclavicle
				{
					OFFSET -0.082954 0.112472 -0.023707
					CHANNELS 3 Zrotation Yrotation Xrotation
					JOINT rshoulder
					{
						OFFSET -0.113228 0.046853 -0.008472
						CHANNELS 3 Zrotation Yrotation Xrotation
						JOINT relbow
						{
							OFFSET -0.260127 -0.014369 -0.031269
							CHANNELS 3 Zrotation Yrotation Xrotation
							JOINT rwrist
							{
								OFFSET -0.269108 0.006794 -0.006027
								CHANNELS 3 Zrotation Yrotation Xrotation
								End Site
								{
									OFFSET 0.000000 0.000000 0.000000
								}
							}
						}
					}
				}
			}
		}
	}
}
MOTION
Frames: 7
Frame Time: 0.033333
0.514324 0.241920 0.987679 90.664460 3.043499 94.704085 7.016088 3.154491 -2.983051 3.401196 -0.191392 -4.435940 -2.337597 4.755371 -4.922551 0.000000 -0.000000 0.000000 -1.577483 -0.864804 -5.832538 -2.244117 -1.706402 2.104137 7.001815 -1.425135 -4.563123 0.000000 -0.000000 0.000000 -3.624960 0.922548 -7.557344 5.848988 -6.022154 8.635254 1.261406 2.750989 -7.046281 -4.912808 -1.079343 24.800644 7.740657 8.648603 3.461295 -13.014640 -12.735528 -4.272809 -71.475549 -36.464298 39.873906 -175.001828 -51.167094 -150.925735 49.040395 1.272108 -21.039951 14.995103 12.196255 1.011364 60.846167 43.034313 31.175323 172.060906 48.422091 -171.995487 -67.616557 -7.163108 -19.765658 
0.514732 0.242039 0.987682 90.558988 2.969922 94.774888 6.922820 2.980541 -2.917473 3.414829 0.163524 -4.539772 -2.098502 4.718839 -4.918826 0.000000 -0.000000 0.000000 -1.731151 -0.817268 -5.906057 -2.207239 -2.054620 2.185134 7.121195 -0.937399 -4.502971 0.000000 -0.000000 0.000000 -3.841773 0.924922 -8.118237 5.962426 -6.100325 9.036522 1.297006 2.544519 -7.113003 -4.562376 -1.043694 25.311326 7.389152 8.926816 4.120698 -12.945299 -11.838424 -4.713737 -72.433174 -35.700951 40.936267 -174.800220 -50.387056 -151.517530 48.732485 1.891609 -19.463559 15.160542 12.162800 0.867723 60.826885 43.392161 32.308766 172.132605 47.576092 -173.456500 -68.357498 -6.786919 -17.608351 
0.515174 0.242109 0.987586 90.446567 2.915527 94.855218 6.871680 2.867888 -2.913979 3.419623 0.462187 -4.580159 -1.856082 4.653148 -4.897732 0.000000 -0.000000 0.000000 -1.841531 -0.764479 -5.997128 -2.179985 -2.313130 2.245251 7.239429 -0.577888 -4.475578 0.000000 -0.000000 0.000000 -3.968367 1.007127 -8.653499 5.953030 -6.117915 9.486507 1.200515 2.588533 -7.440065 -4.486489 -0.847118 26.305236 7.878554 8.795684 4.429658 -12.842470 -11.801818 -4.570533 -72.553490 -35.236792 41.507886 -174.843546 -49.969911 -151.905838 48.593712 2.109564 -18.800871 14.959973 12.326003 0.765565 61.296574 42.591472 32.898059 172.213131 47.010993 -174.070592 -67.703504 -6.313290 -16.294808 
0.515592 0.242146 0.987462 90.352731 2.838810 94.892087 6.810772 2.772901 -2.875517 3.395878 0.707125 -4.609888 -1.744956 4.616593 -4.899168 0.000000 -0.000000 0.000000 -1.969290 -0.761478 -6.028670 -2.152222 -2.528892 2.285913 7.402140 -0.237912 -4.440019 0.000000 -0.000000 0.000000 -4.222916 1.070059 -9.161901 6.041118 -6.143922 9.943390 1.184096 2.679230 -7.647090 -4.360412 -0.664322 26.958807 8.342407 8.739670 4.933521 -12.559521 -11.669639 -4.541724 -72.625714 -35.234646 42.033003 -174.668310 -49.926051 -152.491378 49.149745 2.018565 -18.261696 15.034891 12.306736 0.711923 60.633587 42.508405 32.863024 171.982916 46.396418 -175.120496 -67.950180 -5.825981 -15.131012 
0.515726 0.242179 0.987563 90.362003 2.749658 94.901397 6.708155 2.640521 -2.862133 3.407874 0.810070 -4.602418 -1.559296 4.648862 -4.906882 0.000000 -0.000000 0.000000 -2.110441 -0.794290 -6.038011 -2.103389 -2.663504 2.353528 7.412767 -0.041488 -4.408103 0.000000 -0.000000 0.000000 -4.350154 1.077639 -9.369913 6.158355 -6.173403 10.236817 1.216546 2.685781 -7.789267 -4.342681 -0.611667 27.164111 7.980379 9.136572 5.476100 -12.475024 -11.362106 -4.978118 -72.554878 -35.147327 42.691873 -174.313332 -49.635411 -153.075326 49.981710 2.432138 -17.190830 15.032647 12.402772 0.319942 59.680220 42.843278 33.228948 172.057446 46.110713 -176.080444 -69.012426 -5.878227 -14.056287 
0.515706 0.242175 0.987812 90.438248 2.672946 94.911048 6.631071 2.443569 -2.866814 3.420697 1.101888 -4.591188 -1.397888 4.516762 -4.868981 0.000000 -0.000000 0.000000 -2.219668 -0.734362 -6.035643 -2.107897 -3.024358 2.436149 7.457016 0.221688 -4.381665 0.000000 -0.000000 0.000000 -4.509330 1.054432 -9.488247 6.223975 -6.221563 10.460389 1.221752 2.712021 -8.015302 -4.135446 -0.359419 27.293769 7.978386 8.927603 5.769999 -12.076803 -11.391936 -4.974515 -72.674848 -35.203127 43.106370 -174.604767 -49.525998 -152.713901 49.711884 2.326620 -16.888596 15.051363 12.537469 0.061616 59.738695 42.418248 33.424392 172.503496 45.797378 -175.964658 -67.312958 -5.062454 -13.555016 
0.515160 0.242219 0.988729 90.615051 2.523973 94.969904 6.513544 2.040358 -2.910983 3.384615 1.627600 -4.601496 -0.925228 4.182226 -4.696353 0.000000 -0.000000 0.000000 -2.449935 -0.609166 -6.099410 -2.098603 -3.697677 2.640989 7.673374 0.689535 -4.323559 0.000000 -0.000000 0.000000 -4.668026 1.054361 -9.748911 6.120593 -6.343406 11.107470 1.181252 2.565468 -8.457771 -3.413752 0.112730 26.950142 7.860463 8.398988 6.024006 -11.570249 -11.530362 -5.038241 -72.593202 -34.786765 43.578077 -176.471114 -48.465527 -150.910031 46.869047 2.708584 -12.777375 15.202034 12.884075 -0.175053 60.653700 41.186933 34.030978 174.308019 45.909573 -173.757429 -61.340357 -3.425135 -12.445931 
